<svg xmlns="http://www.w3.org/2000/svg" xmlns:xlink="http://www.w3.org/1999/xlink" preserveAspectRatio="xMidYMid" width="17" height="19.969" viewBox="0 0 17 19.969">
  <defs>
    <style>
      .cls-1 {
        fill: #2dbb55;
        fill-rule: evenodd;
      }
    </style>
  </defs>
  <path d="M-0.000,3.655 C0.045,3.371 0.086,3.057 0.597,2.757 C1.921,2.190 7.127,1.557 7.127,1.557 C7.127,1.557 7.931,0.343 8.486,-0.000 C9.433,0.023 11.073,-0.000 11.073,-0.000 C11.073,-0.000 11.090,0.857 10.625,1.557 C11.466,1.531 16.089,1.163 16.089,1.163 C16.089,1.163 16.996,1.248 17.000,3.655 C15.439,3.705 9.598,2.930 -0.000,3.655 ZM13.819,18.065 C13.819,18.065 12.892,19.798 11.694,19.933 C10.224,20.013 5.913,19.933 5.913,19.933 C5.913,19.933 4.048,20.090 3.181,18.376 C2.912,16.663 0.911,5.460 0.911,5.460 L16.089,5.460 L13.819,18.065 ZM5.111,7.090 C3.836,6.942 3.161,7.199 3.230,7.090 C4.099,11.631 4.734,17.332 4.734,17.332 L5.111,17.332 C5.111,17.332 5.860,12.812 5.111,7.090 ZM8.872,7.090 C7.597,6.942 6.922,7.199 6.991,7.090 C7.860,11.631 8.496,17.332 8.496,17.332 L8.872,17.332 C8.872,17.332 9.621,12.812 8.872,7.090 ZM12.633,7.090 C11.358,6.942 10.683,7.199 10.752,7.090 C11.621,11.631 12.257,17.332 12.257,17.332 L12.633,17.332 C12.633,17.332 13.382,12.812 12.633,7.090 Z" class="cls-1"/>
</svg>
