<svg xmlns="http://www.w3.org/2000/svg" xmlns:xlink="http://www.w3.org/1999/xlink" preserveAspectRatio="xMidYMid" width="18" height="21" viewBox="0 0 18 21">
  <defs>
    <style>
      .cls-1 {
        fill: #f05050;
        fill-rule: evenodd;
      }
    </style>
  </defs>
  <path d="M18.000,4.439 C16.211,4.917 12.579,8.462 9.184,12.143 C12.215,15.551 15.260,19.161 15.923,20.624 C15.677,20.737 15.577,20.624 15.577,20.624 C15.577,20.624 11.986,16.821 7.986,13.458 C4.511,17.314 1.569,20.938 1.569,20.938 C1.569,20.938 1.352,20.994 1.159,21.000 C1.700,19.164 3.772,15.611 6.110,11.942 C3.870,10.216 1.655,8.821 -0.000,8.485 C0.882,6.988 2.423,4.776 2.423,4.776 C2.423,4.776 4.661,7.136 7.320,10.068 C10.711,4.877 14.206,-0.000 14.206,-0.000 C14.206,-0.000 16.675,2.842 18.000,4.439 Z" class="cls-1"/>
</svg>
