<svg xmlns="http://www.w3.org/2000/svg" xmlns:xlink="http://www.w3.org/1999/xlink" preserveAspectRatio="xMidYMid" width="21" height="20" viewBox="0 0 21 20">
  <defs>
    <style>
      .cls-1 {
        fill: #929fab;
        fill-rule: evenodd;
      }
    </style>
  </defs>
  <path d="M14.901,7.428 C15.597,8.558 16.429,9.826 17.452,11.269 C17.330,11.654 17.003,11.739 17.003,11.739 C17.003,11.739 15.614,10.468 13.949,8.727 C11.098,12.697 8.634,16.886 7.711,20.000 C6.280,18.577 -0.000,11.304 -0.000,11.304 L1.217,9.130 L6.494,13.913 C6.494,13.913 8.626,10.245 11.979,6.566 C10.758,5.152 9.607,3.652 8.929,2.348 L11.620,-0.000 C11.620,-0.000 11.565,1.376 13.495,4.996 C15.596,2.940 18.047,1.047 20.699,-0.000 C20.709,0.021 20.863,0.112 21.000,0.228 C19.097,2.160 16.936,4.707 14.901,7.428 Z" class="cls-1"/>
</svg>
