<svg xmlns="http://www.w3.org/2000/svg" xmlns:xlink="http://www.w3.org/1999/xlink" preserveAspectRatio="xMidYMid" width="15" height="16" viewBox="0 0 15 16">
  <defs>
    <style>
      .cls-1 {
        fill: #2dbb55;
        fill-rule: evenodd;
      }
    </style>
  </defs>
  <path d="M0.000,-0.000 L15.000,-0.000 L15.000,4.954 L14.337,4.954 C14.337,4.954 13.071,1.929 11.577,1.665 C10.083,1.401 9.045,1.583 9.045,1.583 L9.026,14.214 C9.026,14.214 9.441,15.067 10.125,15.128 L11.640,15.128 L11.640,16.000 L3.361,16.000 L3.382,15.106 L4.709,15.086 C4.709,15.086 5.705,14.780 5.705,14.070 C5.705,13.360 5.726,1.685 5.726,1.685 C5.726,1.685 4.087,1.463 3.236,1.666 C2.386,1.868 0.891,3.087 0.663,4.873 L0.000,4.894 L0.000,-0.000 L0.000,-0.000 M0.000,-0.000 L0.000,-0.000 Z" class="cls-1"/>
</svg>
